<svg width="24" height="24" viewBox="0 0 24 24" fill="none" xmlns="http://www.w3.org/2000/svg">
<path fill-rule="evenodd" clip-rule="evenodd" d="M9.05859 4.02246H14.9399C16.5967 4.02246 17.9399 5.36561 17.9399 7.02246V17.1401C17.9399 18.797 16.5967 20.1401 14.9399 20.1401H9.05859C7.40174 20.1401 6.05859 18.797 6.05859 17.1401V7.02246C6.05859 5.36561 7.40174 4.02246 9.05859 4.02246ZM4.05859 7.02246C4.05859 4.26103 6.29717 2.02246 9.05859 2.02246H14.9399C17.7013 2.02246 19.9399 4.26104 19.9399 7.02246V17.1401C19.9399 19.9015 17.7013 22.1401 14.9399 22.1401H9.05859C6.29717 22.1401 4.05859 19.9015 4.05859 17.1401V7.02246ZM10.1582 8.33461C10.1582 8.05844 10.3821 7.83457 10.6582 7.83457C10.983 7.83457 11.1486 7.97524 11.32 8.12089C11.4155 8.20202 11.5128 8.28471 11.6404 8.34548C11.9743 8.50438 12.3702 8.45189 12.651 8.21201L12.6607 8.20413C12.9032 8.00677 13.1148 7.83457 13.531 7.83457C13.8018 7.83457 14.0223 8.04988 14.0308 8.31867C13.9947 8.9966 13.5239 9.6537 12.8826 10.2143C12.5788 10.4799 12.2734 10.6912 12.0412 10.837C11.816 10.7217 11.5267 10.5516 11.2419 10.3246C10.6411 9.84555 10.1582 9.19913 10.1582 8.33461ZM10.6582 5.96191C11.2493 5.96191 11.7445 6.16082 12.0839 6.35389C12.4248 6.17182 12.9384 5.96191 13.531 5.96191C14.8414 5.96191 15.9037 7.02421 15.9037 8.33461C15.9037 8.34701 15.9034 8.35942 15.9029 8.37181C15.8444 9.84294 14.8819 10.9539 14.115 11.6242C13.7144 11.9745 13.3207 12.2453 13.0285 12.4283C12.8814 12.5204 12.7578 12.5917 12.6687 12.6411C12.6241 12.6659 12.588 12.6852 12.5617 12.699L12.5299 12.7156L12.5198 12.7207L12.5163 12.7225L12.0843 12.7492L11.7774 12.7675L11.7757 12.7669L11.7714 12.7653L11.7597 12.761L11.7241 12.7474C11.6951 12.7362 11.6559 12.7206 11.6079 12.7004C11.5121 12.66 11.3801 12.6011 11.224 12.5223C10.914 12.3659 10.4967 12.1254 10.0745 11.7888C9.23898 11.1227 8.28552 9.99314 8.28552 8.33461C8.28552 7.02421 9.34782 5.96191 10.6582 5.96191ZM12.0843 12.7492L11.7789 12.768C12.0196 12.8542 12.2851 12.8382 12.5138 12.7238L12.5163 12.7225C12.5149 12.7232 12.2867 12.737 12.0843 12.7492ZM9.43848 13.9521C8.88619 13.9521 8.43848 14.3999 8.43848 14.9521C8.43848 15.5044 8.88619 15.9521 9.43848 15.9521H14.7573C15.3096 15.9521 15.7573 15.5044 15.7573 14.9521C15.7573 14.3999 15.3096 13.9521 14.7573 13.9521H9.43848ZM8.4386 17.9624C8.4386 17.4101 8.88631 16.9624 9.4386 16.9624H14.7506C15.3029 16.9624 15.7506 17.4101 15.7506 17.9624C15.7506 18.5147 15.3029 18.9624 14.7506 18.9624H9.4386C8.88631 18.9624 8.4386 18.5147 8.4386 17.9624Z" fill="#17AD7F"/>
</svg>
