<svg width="96" height="96" viewBox="0 0 96 96" fill="none" xmlns="http://www.w3.org/2000/svg">
<g clip-path="url(#clip0_535_11735)">
<path d="M48 96C74.5097 96 96 74.5097 96 48C96 21.4903 74.5097 0 48 0C21.4903 0 0 21.4903 0 48C0 74.5097 21.4903 96 48 96Z" fill="#32BA7C"/>
<path d="M35.7354 69.6531L60.4167 94.3344C80.8584 88.8833 96.0003 70.2587 96.0003 48.0001C96.0003 47.5458 96.0003 47.0915 96.0003 46.6373L76.6186 28.7698L35.7354 69.6531Z" fill="#0AA06E"/>
<path d="M49.2112 58.7509C51.331 60.8708 51.331 64.5048 49.2112 66.6247L44.82 71.0159C42.7001 73.1358 39.066 73.1358 36.9462 71.0159L17.7159 51.6342C15.596 49.5143 15.596 45.8802 17.7159 43.7604L22.1071 39.3692C24.2269 37.2493 27.861 37.2493 29.9809 39.3692L49.2112 58.7509Z" fill="white"/>
<path d="M66.0184 25.2872C68.1383 23.1673 71.7724 23.1673 73.8922 25.2872L78.2834 29.6783C80.4033 31.7982 80.4033 35.4323 78.2834 37.5522L44.9711 70.713C42.8512 72.8329 39.2172 72.8329 37.0973 70.713L32.7061 66.3219C30.5862 64.202 30.5862 60.5679 32.7061 58.448L66.0184 25.2872Z" fill="white"/>
</g>
<defs>
<clipPath id="clip0_535_11735">
<rect width="96" height="96" fill="white"/>
</clipPath>
</defs>
</svg>
