<svg width="112" height="112" viewBox="0 0 112 112" fill="none" xmlns="http://www.w3.org/2000/svg">
<path d="M40 0.5H72C81.4422 0.5 88.4737 0.500826 93.8789 1.22754C99.2697 1.95232 102.969 3.3904 105.789 6.21094C108.61 9.03147 110.048 12.7303 110.772 18.1211C111.499 23.5263 111.5 30.5578 111.5 40V72C111.5 81.4422 111.499 88.4737 110.772 93.8789C110.048 99.2697 108.61 102.969 105.789 105.789C102.969 108.61 99.2697 110.048 93.8789 110.772C88.4737 111.499 81.4422 111.5 72 111.5H40C30.5578 111.5 23.5263 111.499 18.1211 110.772C12.7303 110.048 9.03147 108.61 6.21094 105.789C3.3904 102.969 1.95232 99.2697 1.22754 93.8789C0.500826 88.4737 0.5 81.4422 0.5 72V40C0.5 30.5578 0.500826 23.5263 1.22754 18.1211C1.95232 12.7303 3.3904 9.03147 6.21094 6.21094C9.03147 3.3904 12.7303 1.95232 18.1211 1.22754C23.5263 0.500826 30.5578 0.5 40 0.5Z" fill="white"/>
<path d="M40 0.5H72C81.4422 0.5 88.4737 0.500826 93.8789 1.22754C99.2697 1.95232 102.969 3.3904 105.789 6.21094C108.61 9.03147 110.048 12.7303 110.772 18.1211C111.499 23.5263 111.5 30.5578 111.5 40V72C111.5 81.4422 111.499 88.4737 110.772 93.8789C110.048 99.2697 108.61 102.969 105.789 105.789C102.969 108.61 99.2697 110.048 93.8789 110.772C88.4737 111.499 81.4422 111.5 72 111.5H40C30.5578 111.5 23.5263 111.499 18.1211 110.772C12.7303 110.048 9.03147 108.61 6.21094 105.789C3.3904 102.969 1.95232 99.2697 1.22754 93.8789C0.500826 88.4737 0.5 81.4422 0.5 72V40C0.5 30.5578 0.500826 23.5263 1.22754 18.1211C1.95232 12.7303 3.3904 9.03147 6.21094 6.21094C9.03147 3.3904 12.7303 1.95232 18.1211 1.22754C23.5263 0.500826 30.5578 0.5 40 0.5Z" stroke="#E2E4E8"/>
<path d="M75.2664 32.7385L60.1731 27.0745C57.4931 26.0559 54.5091 26.0559 51.8291 27.0745L36.7011 32.7385C33.3091 34.0265 31.0371 37.3172 31.0371 40.9465V56.2772C31.0371 69.6079 43.2824 79.4105 50.6078 84.0905C52.2691 85.1412 54.1358 85.6852 55.9998 85.6852C57.8638 85.6852 59.7304 85.1439 61.3944 84.0905C68.6878 79.4105 80.9651 69.6079 80.9651 56.2772V40.9465C80.9651 37.3172 78.6584 34.0265 75.2664 32.7385ZM64.4451 57.3972H58.5091V63.3679C58.5091 64.7572 57.3571 65.9119 55.9651 65.9119C54.5411 65.9119 53.4211 64.7572 53.4211 63.3679V57.3972H47.4851C46.0611 57.3972 44.9411 56.2772 44.9411 54.8532C44.9411 53.4612 46.0611 52.3092 47.4851 52.3092H53.4211V46.3732C53.4211 44.9812 54.5411 43.8292 55.9651 43.8292C57.3571 43.8292 58.5091 44.9812 58.5091 46.3732V52.3092H64.4451C65.8371 52.3092 66.9891 53.4612 66.9891 54.8532C66.9891 56.2772 65.8371 57.3972 64.4451 57.3972Z" fill="url(#paint0_linear_1006_16682)"/>
<defs>
<linearGradient id="paint0_linear_1006_16682" x1="56.0011" y1="26.3105" x2="56.0011" y2="85.6852" gradientUnits="userSpaceOnUse">
<stop stop-color="#17AD7F"/>
<stop offset="1" stop-color="#459B81"/>
</linearGradient>
</defs>
</svg>
