<svg width="100" height="101" viewBox="0 0 100 101" fill="none" xmlns="http://www.w3.org/2000/svg">
<rect width="100" height="101" rx="50" fill="#F5F6F7"/>
<rect x="20" y="20.5859" width="60" height="60" rx="30" fill="white" fill-opacity="0.1"/>
<path d="M65 45.5852C65 46.9152 64.68 48.3415 64.0475 49.8252C63.845 50.3002 63.3838 50.5865 62.8975 50.5865C62.7338 50.5865 62.5675 50.554 62.4075 50.4852C61.7713 50.2152 61.4763 49.4802 61.7475 48.8452C62.2463 47.6727 62.5 46.5765 62.5 45.5852C62.5 42.1977 59.9237 39.3352 56.875 39.3352C54.0812 39.3352 52.49 40.4665 51.4175 41.4527L46.6375 45.889C46.1963 46.3315 46.0913 47.0752 46.4338 47.5515C46.6575 47.8627 46.9862 48.0502 47.3575 48.0802C47.7262 48.114 48.0837 47.979 48.3425 47.7177L53.5588 42.724C54.0538 42.2477 54.8475 42.264 55.3263 42.7627C55.8037 43.2615 55.7862 44.0527 55.2875 44.5302L53.74 46.0115L59.6737 51.219C61.0638 52.439 61.4062 54.4877 60.47 55.984C59.8937 56.904 58.9525 57.5227 57.8888 57.679C57.8163 57.689 57.745 57.6977 57.6725 57.704C57.6675 58.3477 57.4963 58.9852 57.145 59.5477C56.5688 60.4677 55.6275 61.0865 54.5637 61.2427C54.3325 61.2752 54.1025 61.289 53.8725 61.2777C53.805 61.7552 53.6425 62.2202 53.3787 62.6415C52.8025 63.5615 51.8738 64.3752 50.2638 64.3752C49.38 64.3752 48.5225 64.0565 47.85 63.4652L43.97 59.9852C39.8763 56.2852 35 50.7865 35 45.5852C35 40.7602 38.645 36.8352 43.125 36.8352C44.1575 36.8352 45.1663 37.0452 46.1213 37.4602C46.755 37.7352 47.0462 38.4715 46.7712 39.104C46.4963 39.7365 45.76 40.0265 45.1275 39.754C44.4875 39.4765 43.8138 39.3365 43.1237 39.3365C40.075 39.3365 37.4987 42.199 37.4987 45.5865C37.4987 48.929 40.39 53.3827 45.6425 58.129L49.51 61.5965C49.7562 61.8127 50.0975 61.9127 50.435 61.864C50.7775 61.814 51.0713 61.6202 51.26 61.3165C51.5475 60.8552 51.405 60.1702 50.9338 59.7577L46.925 55.9465C46.4262 55.4715 46.405 54.6815 46.8787 54.1802C47.3538 53.6802 48.1438 53.659 48.645 54.1315L53.2975 58.524C53.5212 58.719 53.8675 58.8215 54.2 58.769C54.5425 58.719 54.8363 58.524 55.025 58.2215C55.3125 57.7602 55.17 57.0752 54.6987 56.6615L50.2488 52.6327C49.7388 52.1715 49.6975 51.3827 50.1575 50.8715C50.6163 50.3602 51.405 50.3152 51.9188 50.7727L56.5963 54.9352C56.8463 55.1552 57.1888 55.2577 57.525 55.2052C57.8675 55.1552 58.1613 54.9602 58.35 54.6577C58.6375 54.1965 58.495 53.5115 58.0238 53.0977L51.9263 47.7465L50.0887 49.5052C49.33 50.2652 48.2587 50.6602 47.1537 50.5727C46.0562 50.484 45.0525 49.9152 44.4025 49.0115C43.3462 47.544 43.56 45.4277 44.9 44.0877L49.7188 39.6152C51.0212 38.419 53.1737 36.834 56.8725 36.834C61.3525 36.834 64.9975 40.759 64.9975 45.584L65 45.5852Z" fill="#17AD7F"/>
</svg>
