<svg width="112" height="112" viewBox="0 0 112 112" fill="none" xmlns="http://www.w3.org/2000/svg">
<path d="M40 0.5H72C81.4422 0.5 88.4737 0.500826 93.8789 1.22754C99.2697 1.95232 102.969 3.3904 105.789 6.21094C108.61 9.03147 110.048 12.7303 110.772 18.1211C111.499 23.5263 111.5 30.5578 111.5 40V72C111.5 81.4422 111.499 88.4737 110.772 93.8789C110.048 99.2697 108.61 102.969 105.789 105.789C102.969 108.61 99.2697 110.048 93.8789 110.772C88.4737 111.499 81.4422 111.5 72 111.5H40C30.5578 111.5 23.5263 111.499 18.1211 110.772C12.7303 110.048 9.03147 108.61 6.21094 105.789C3.3904 102.969 1.95232 99.2697 1.22754 93.8789C0.500826 88.4737 0.5 81.4422 0.5 72V40C0.5 30.5578 0.500826 23.5263 1.22754 18.1211C1.95232 12.7303 3.3904 9.03147 6.21094 6.21094C9.03147 3.3904 12.7303 1.95232 18.1211 1.22754C23.5263 0.500826 30.5578 0.5 40 0.5Z" fill="white"/>
<path d="M40 0.5H72C81.4422 0.5 88.4737 0.500826 93.8789 1.22754C99.2697 1.95232 102.969 3.3904 105.789 6.21094C108.61 9.03147 110.048 12.7303 110.772 18.1211C111.499 23.5263 111.5 30.5578 111.5 40V72C111.5 81.4422 111.499 88.4737 110.772 93.8789C110.048 99.2697 108.61 102.969 105.789 105.789C102.969 108.61 99.2697 110.048 93.8789 110.772C88.4737 111.499 81.4422 111.5 72 111.5H40C30.5578 111.5 23.5263 111.499 18.1211 110.772C12.7303 110.048 9.03147 108.61 6.21094 105.789C3.3904 102.969 1.95232 99.2697 1.22754 93.8789C0.500826 88.4737 0.5 81.4422 0.5 72V40C0.5 30.5578 0.500826 23.5263 1.22754 18.1211C1.95232 12.7303 3.3904 9.03147 6.21094 6.21094C9.03147 3.3904 12.7303 1.95232 18.1211 1.22754C23.5263 0.500826 30.5578 0.5 40 0.5Z" stroke="#E2E4E8"/>
<rect width="64" height="64" transform="translate(24 24)" fill="white"/>
<path d="M85.1882 36.7996L83.8306 35.6359C84.0245 34.7632 83.7336 33.6965 83.0548 32.6299C82.3761 31.6602 81.4064 30.6905 80.6306 30.3026C78.8851 29.4299 76.6548 30.2056 75.6851 32.242C74.7154 34.1814 75.3942 36.5086 77.2367 37.3814C77.9155 37.6723 78.8851 37.9632 79.9518 37.9632C80.9215 37.9632 81.9882 37.7693 82.7639 37.2844L83.9276 38.3511C85.3821 39.6117 85.4791 41.842 84.2185 43.1996L75.7821 51.7329C74.3276 50.9571 72.4851 51.248 71.3215 52.5087C68.3154 55.7087 64.3397 55.3208 61.8185 53.9632C59.0064 52.4117 57.7458 49.6965 58.5215 46.4965C58.7154 45.5268 58.5215 44.4602 58.0367 43.5874C57.6488 43.0056 57.067 42.5208 56.3882 42.2299C56.5821 40.8723 55.8064 46.7874 57.9397 30.6905C58.3276 28.848 60.17 27.5874 62.0124 27.9753L63.9518 28.3632C64.0488 28.945 64.3397 29.6238 64.7276 30.3026C65.4064 31.2723 66.2791 32.242 67.1518 32.6299C68.9942 33.5026 71.2245 32.6299 72.0973 30.6905C73.067 28.7511 72.3882 26.4238 70.5458 25.5511C68.9942 24.7753 65.5033 24.6783 64.2427 26.4238L62.2064 26.0359C59.2973 25.4541 56.4851 27.2965 55.8064 30.2056V30.3996L54.2548 41.842C53.673 41.939 52.9942 42.1329 52.5094 42.4238C51.6367 43.0056 51.0548 43.7814 50.8609 44.848C49.6003 50.4723 51.3458 55.6117 55.5154 59.0056C55.1276 60.0723 54.7397 61.139 54.3518 62.1087C52.1215 61.4299 50.1821 60.945 48.4367 60.4602C43.8791 59.2965 38.5458 58.1329 33.6003 60.1693C25.5518 63.3693 22.3518 73.4541 27.2973 80.9208C31.37 87.0299 39.1276 88.4844 45.6245 85.6723C49.5033 83.9268 52.9942 80.7268 55.7094 76.3632C56.5821 75.0056 57.5518 73.0662 58.6185 70.448C61.9155 71.5147 67.2488 73.2602 70.4488 74.3268C70.8367 78.1087 74.0367 81.0177 77.9154 81.0177C82.0851 81.0177 85.3821 77.6238 85.3821 73.4541C85.3821 69.2844 81.9882 65.8905 77.9154 65.8905C75.9761 65.8905 74.2306 66.6662 72.873 67.8299C69.673 66.6662 64.4367 65.0177 61.1397 63.9511C61.4306 63.2723 61.6245 62.5935 61.9154 61.9147C63.0791 62.2056 64.3397 62.3026 65.6003 62.3026C69.77 62.3026 73.8427 60.6541 76.8488 57.5511C77.5276 56.7753 77.9154 55.8056 77.9154 54.8359C77.9154 54.1571 77.7215 53.4783 77.3336 52.8965L85.77 44.3632C87.6124 42.2299 87.4185 38.8359 85.1882 36.7996ZM50.57 73.1632C49.1154 75.4905 46.6912 78.5935 43.1033 80.145C39.3215 81.7935 34.57 81.3087 32.0488 77.5268C29.2367 73.2602 31.0791 67.345 35.8306 65.4056C39.2245 64.048 43.4912 65.0177 46.9821 65.9874C49.0185 66.5693 51.0548 67.0541 53.0912 67.7329C52.1215 70.1571 51.2488 71.9996 50.57 73.1632ZM77.9154 69.8662C79.9518 69.8662 81.5033 71.5147 81.5033 73.4541C81.5033 75.3935 79.8548 77.042 77.9154 77.042C75.8791 77.042 74.3276 75.3935 74.3276 73.4541C74.3276 71.5147 75.8791 69.8662 77.9154 69.8662Z" fill="url(#paint0_linear_1006_16696)"/>
<defs>
<linearGradient id="paint0_linear_1006_16696" x1="55.9818" y1="25.019" x2="55.9818" y2="87.0488" gradientUnits="userSpaceOnUse">
<stop stop-color="#2F8AD3"/>
<stop offset="1" stop-color="#6BB4EF"/>
</linearGradient>
</defs>
</svg>
