<svg width="112" height="112" viewBox="0 0 112 112" fill="none" xmlns="http://www.w3.org/2000/svg">
<path d="M40 0.5H72C81.4422 0.5 88.4737 0.500826 93.8789 1.22754C99.2697 1.95232 102.969 3.3904 105.789 6.21094C108.61 9.03147 110.048 12.7303 110.772 18.1211C111.499 23.5263 111.5 30.5578 111.5 40V72C111.5 81.4422 111.499 88.4737 110.772 93.8789C110.048 99.2697 108.61 102.969 105.789 105.789C102.969 108.61 99.2697 110.048 93.8789 110.772C88.4737 111.499 81.4422 111.5 72 111.5H40C30.5578 111.5 23.5263 111.499 18.1211 110.772C12.7303 110.048 9.03147 108.61 6.21094 105.789C3.3904 102.969 1.95232 99.2697 1.22754 93.8789C0.500826 88.4737 0.5 81.4422 0.5 72V40C0.5 30.5578 0.500826 23.5263 1.22754 18.1211C1.95232 12.7303 3.3904 9.03147 6.21094 6.21094C9.03147 3.3904 12.7303 1.95232 18.1211 1.22754C23.5263 0.500826 30.5578 0.5 40 0.5Z" fill="white"/>
<path d="M40 0.5H72C81.4422 0.5 88.4737 0.500826 93.8789 1.22754C99.2697 1.95232 102.969 3.3904 105.789 6.21094C108.61 9.03147 110.048 12.7303 110.772 18.1211C111.499 23.5263 111.5 30.5578 111.5 40V72C111.5 81.4422 111.499 88.4737 110.772 93.8789C110.048 99.2697 108.61 102.969 105.789 105.789C102.969 108.61 99.2697 110.048 93.8789 110.772C88.4737 111.499 81.4422 111.5 72 111.5H40C30.5578 111.5 23.5263 111.499 18.1211 110.772C12.7303 110.048 9.03147 108.61 6.21094 105.789C3.3904 102.969 1.95232 99.2697 1.22754 93.8789C0.500826 88.4737 0.5 81.4422 0.5 72V40C0.5 30.5578 0.500826 23.5263 1.22754 18.1211C1.95232 12.7303 3.3904 9.03147 6.21094 6.21094C9.03147 3.3904 12.7303 1.95232 18.1211 1.22754C23.5263 0.500826 30.5578 0.5 40 0.5Z" stroke="#E2E4E8"/>
<rect width="64" height="64" transform="translate(23.5 23.5)" fill="white"/>
<path d="M77.8473 36.5669C75.4873 34.2028 72.3934 32.7116 69.0739 32.3385C65.7543 31.9653 62.4066 32.7324 59.5806 34.5135L65.5006 40.5402C65.7371 40.8019 65.9193 41.108 66.0367 41.4406C66.1541 41.7733 66.2044 42.1259 66.1845 42.4781C66.1647 42.8303 66.0752 43.175 65.9211 43.4924C65.7671 43.8097 65.5517 44.0934 65.2873 44.3269C64.7943 44.7617 64.158 44.9991 63.5006 44.9935C63.124 44.9964 62.7511 44.9195 62.4063 44.7678C62.0616 44.6161 61.7529 44.3931 61.5006 44.1135L53.9806 36.5669C52.9022 35.4895 51.6602 34.5895 50.3006 33.9002C47.5266 32.4791 44.3743 31.9718 41.2945 32.4507C38.2147 32.9297 35.3653 34.3705 33.1539 36.5669C30.3867 39.7879 28.8652 43.8938 28.8652 48.1402C28.8652 52.3866 30.3867 56.4925 33.1539 59.7135C38.1139 65.0469 50.1673 77.3935 55.5806 77.3935C59.7939 77.3935 68.0606 69.9002 73.794 64.0602C75.234 62.6202 76.4606 61.3935 77.5273 60.1935L77.9273 59.7669C80.6977 56.5326 82.2137 52.4106 82.199 48.152C82.1843 43.8935 80.6399 39.782 77.8473 36.5669ZM60.834 59.5002H58.1673V62.1669C58.1673 62.8741 57.8863 63.5524 57.3862 64.0525C56.8861 64.5526 56.2079 64.8335 55.5006 64.8335C54.7934 64.8335 54.1151 64.5526 53.615 64.0525C53.1149 63.5524 52.834 62.8741 52.834 62.1669V59.5002H50.1673C49.46 59.5002 48.7818 59.2193 48.2817 58.7192C47.7816 58.2191 47.5006 57.5408 47.5006 56.8335C47.5006 56.1263 47.7816 55.448 48.2817 54.9479C48.7818 54.4478 49.46 54.1669 50.1673 54.1669H52.834V51.5002C52.834 50.793 53.1149 50.1147 53.615 49.6146C54.1151 49.1145 54.7934 48.8335 55.5006 48.8335C56.2079 48.8335 56.8861 49.1145 57.3862 49.6146C57.8863 50.1147 58.1673 50.793 58.1673 51.5002V54.1669H60.834C61.5412 54.1669 62.2195 54.4478 62.7196 54.9479C63.2197 55.448 63.5006 56.1263 63.5006 56.8335C63.5006 57.5408 63.2197 58.2191 62.7196 58.7192C62.2195 59.2193 61.5412 59.5002 60.834 59.5002Z" fill="url(#paint0_linear_1006_16711)"/>
<defs>
<linearGradient id="paint0_linear_1006_16711" x1="55.5322" y1="32.2463" x2="55.5322" y2="77.3935" gradientUnits="userSpaceOnUse">
<stop stop-color="#A868B2"/>
<stop offset="1" stop-color="#BD7DC8"/>
</linearGradient>
</defs>
</svg>
