<svg width="24" height="24" viewBox="0 0 24 24" fill="none" xmlns="http://www.w3.org/2000/svg">
<path fill-rule="evenodd" clip-rule="evenodd" d="M18.5509 5.92932C18.0897 6.06675 17.4441 6.34895 16.4632 6.78159L8.66255 10.2223C7.44747 10.7583 6.62399 11.1237 6.098 11.435C6.68146 11.617 7.5669 11.7833 8.87266 12.0256L9.99242 12.2333C10.0062 12.2359 10.02 12.2384 10.0339 12.241C10.3247 12.2949 10.6205 12.3497 10.8682 12.4246C11.1527 12.5107 11.468 12.6488 11.744 12.9249C12.02 13.201 12.158 13.5163 12.244 13.8008C12.3189 14.0485 12.3736 14.3444 12.4274 14.6352C12.43 14.649 12.4325 14.6629 12.4351 14.6767L12.5968 15.5497C12.8426 16.877 13.0118 17.779 13.1965 18.3732C13.5077 17.8344 13.8715 16.9918 14.4039 15.7513L17.7196 8.02546C18.1424 7.0403 18.4181 6.39187 18.5509 5.92932ZM18.9347 5.85159C18.9347 5.85159 18.9299 5.85194 18.9219 5.85089C18.931 5.85076 18.9347 5.85159 18.9347 5.85159ZM18.6256 5.55753C18.6245 5.54957 18.6248 5.54475 18.6248 5.54475C18.6248 5.54475 18.6257 5.54845 18.6256 5.55753ZM18.0236 3.89568C18.6122 3.72844 19.5221 3.57289 20.2098 4.25376C20.8975 4.93464 20.7511 5.84603 20.5897 6.4362C20.419 7.06064 20.0776 7.85609 19.6814 8.77903L16.3019 16.6535C15.7977 17.8286 15.3781 18.8063 14.9864 19.4726C14.7862 19.8132 14.5455 20.1583 14.2397 20.4157C13.9053 20.6972 13.4567 20.9003 12.9212 20.8405C12.3857 20.7807 11.9929 20.4838 11.7288 20.1355C11.4872 19.817 11.3285 19.4274 11.2083 19.051C10.9731 18.3147 10.7794 17.2686 10.5466 16.0112L10.3702 15.0591C10.3089 14.7279 10.2746 14.5505 10.2398 14.4287C10.1179 14.3938 9.94058 14.3595 9.60938 14.2981L8.41027 14.0756C7.1742 13.8464 6.14343 13.6552 5.41681 13.4221C5.04491 13.3027 4.65891 13.1448 4.34266 12.9039C3.99679 12.6403 3.70397 12.2505 3.64229 11.7211C3.5806 11.1917 3.77596 10.745 4.05198 10.409C4.30436 10.1018 4.64371 9.85939 4.97822 9.65777C5.63178 9.26383 6.591 8.84078 7.74126 8.33347L15.69 4.82741C16.609 4.42202 17.401 4.07263 18.0236 3.89568Z" fill="#17AD7F"/>
</svg>
