<svg width="74" height="30" viewBox="0 0 74 30" fill="none" xmlns="http://www.w3.org/2000/svg">
<path d="M20.3786 25.4552C20.305 25.3982 20.2228 25.3605 20.137 25.3446C20.0513 25.3286 19.9639 25.3347 19.8801 25.3625C19.1009 25.7286 18.2892 25.3411 17.4527 24.4473C16.8797 23.8292 16.2896 23.2182 15.7548 22.5573C15.0272 21.6634 14.3453 20.722 13.6444 19.802C13.377 19.4478 13.4095 19.241 13.6826 19.1625C13.9276 19.1144 14.1699 19.0477 14.4084 18.9629C16.3927 18.0642 18.0638 16.7496 19.3071 14.8644C19.9334 13.9335 20.3312 12.7979 20.453 11.5933C20.8541 7.85143 18.6139 3.30606 14.5592 1.30676C13.9538 1.0096 13.3446 0.800401 12.7372 0.56505C11.947 0.22947 11.1057 0.122955 10.2774 0.253627C10.0444 0.280464 9.81038 0.291577 9.57644 0.286912C9.24052 0.27133 8.90417 0.295206 8.57185 0.358228C7.13946 0.814666 5.72617 1.30914 4.31097 1.79886C4.16582 1.84878 3.99776 1.92486 3.94619 2.07225C3.61579 3.02316 2.99126 3.59371 2.11464 3.88612C2.0287 3.91702 1.97713 4.02638 1.92366 4.12384C1.75368 4.45904 1.641 4.86081 1.41564 5.13182C0.875149 5.78082 0.760558 6.71033 0.789206 7.73019C0.817854 8.75004 1.34497 9.67005 2.24833 10.4023C2.64432 10.7416 3.05702 11.0497 3.484 11.3246C3.70746 11.4601 4.07797 11.5457 4.16773 11.4245C4.33389 11.1986 4.13336 10.8373 3.8316 10.5401C3.24527 9.96484 3.13259 9.69382 3.2892 9.08761C3.35695 8.73693 3.49568 8.41367 3.69218 8.14859C4.26094 7.4556 4.87766 6.82635 5.53519 6.26816C6.85108 5.22929 8.39996 4.59217 10.1093 4.17852C11.5302 3.83382 12.9741 3.67454 14.6433 4.08581C15.8331 4.38059 16.8377 5.19125 17.3075 6.368C17.6647 7.25711 17.8155 8.11055 17.6895 8.86415C17.4584 10.2097 17.0669 11.4387 16.3526 12.3849C15.094 14.0347 13.377 15.0546 11.5627 15.9342C11.3725 15.9645 11.1799 15.9645 10.9897 15.9342C10.9766 15.6171 10.983 15.2992 11.0088 14.9833C11.28 13.1765 11.5417 11.3627 11.8625 9.58685C12.0096 8.77381 11.6925 8.11055 11.0165 7.38073C10.1055 6.39891 9.6471 6.30144 9.27659 7.20005C8.69219 8.58785 8.28252 10.0792 8.06192 11.6218C7.89576 12.8295 7.69141 14.0133 7.48897 15.1996C7.29798 16.3027 6.84726 17.2251 6.78232 18.4208C6.72884 19.4217 6.64099 20.4344 6.36788 21.2902C5.84076 22.9377 5.98591 24.9061 5.99928 26.8126C6.05813 27.3821 6.27018 27.91 6.60088 28.3103C7.11519 28.8485 7.6802 29.3067 8.28346 29.6749C8.64825 29.9126 8.97101 29.8437 9.02831 29.4372C9.14661 28.7914 9.21503 28.1331 9.23266 27.4712C9.20783 24.7872 9.72159 22.4123 10.1246 19.9732C10.1513 19.8115 10.2945 19.7212 10.4149 19.5524C10.9534 20.6935 11.4214 21.692 11.9427 22.8188C11.9103 22.5335 11.8931 22.3743 11.874 22.215L11.9924 22.1912C12.0972 22.3373 12.1894 22.4966 12.2674 22.6667C12.5683 23.5933 13.105 24.3716 13.7953 24.8823C14.1887 25.1866 14.5039 25.7286 14.8553 26.1637C15.0463 26.4014 15.22 26.6391 15.4282 26.8578C15.7586 27.1978 16.1043 27.5116 16.4481 27.8277C17.2941 28.6099 18.2128 29.052 18.9825 28.9308C20.2449 28.7335 20.4607 27.3832 20.6727 26.1018C20.6975 25.9568 20.5275 25.6145 20.3805 25.4671" fill="#2EC697"/>
<path d="M54.9533 27.2805C54.882 24.4103 54.8228 21.5473 54.7757 18.6914L54.8998 14.8592C54.8884 13.9939 54.8311 13.1024 54.8272 12.2442C54.8171 10.6593 54.8113 9.07448 54.8101 7.48962H51.3456C51.3456 8.267 51.4105 9.08716 51.4067 9.86691C51.3822 10.2412 51.3337 10.6125 51.2615 10.9771C51.2403 11.1389 51.2345 11.3033 51.2444 11.4668C51.2575 12.0811 51.3047 12.6935 51.3857 13.2997L51.2711 15.4107C50.6275 16.0906 49.5962 16.9227 48.3146 17.0368C46.9778 17.1509 45.595 16.471 44.1836 15.0114C44.2104 12.5548 44.2384 10.0983 44.2677 7.64177H40.8548C40.8346 8.02411 40.8455 8.408 40.8872 8.78763C41.0171 9.94536 40.6962 10.8963 40.6447 11.9803C40.5893 13.1428 40.6218 14.3576 40.6008 15.5462L40.3926 20.5171C40.4715 21.2267 40.5205 21.9408 40.5396 22.6567C40.5186 23.5197 40.3372 24.2875 40.807 25.393C40.9655 25.7662 41.0859 26.3249 40.9254 26.439C40.6237 26.6553 40.8032 27.0048 40.9636 27.3899C41.0782 27.6585 41.3169 27.9509 41.3914 28.2053C41.5423 28.7212 41.8861 29.0397 42.3139 29.3274C43.8036 30.3258 44.2104 30.2379 44.281 28.8971C44.2839 28.8306 44.2839 28.7639 44.281 28.6974C44.2027 26.6363 44.1206 24.5752 44.0461 22.5164C44.0213 21.8033 43.9888 21.0687 44.0137 20.3769C44.0151 20.2674 44.0454 20.1616 44.1 20.0757C44.1545 19.9897 44.2302 19.9285 44.3154 19.9014L44.2982 19.1882C45.4299 19.9851 46.7051 20.4128 48.0053 20.4316C48.1848 20.4316 48.3624 20.4316 48.54 20.4054C49.4087 20.3199 50.2577 20.0388 51.0457 19.5757L51.0133 20.1772C50.6408 20.3507 51.1641 21.0116 50.8643 21.1614C51.3551 21.7961 51.0744 22.1123 51.0916 22.564C51.1088 23.0537 50.9961 23.4935 51.3456 23.9666C51.2437 24.18 51.1654 24.4095 51.1126 24.6489C51.1027 24.9254 51.1142 25.2024 51.147 25.4762C51.2386 27.1403 52.1554 28.4454 53.9315 29.4557C54.8425 29.9716 55.1271 29.8646 55.0774 28.9922C55.0469 28.4383 54.9648 27.8558 54.9514 27.309" fill="#2EC697"/>
<path d="M37.8177 27.9593C37.6573 27.8008 37.5324 27.5937 37.4548 27.3579C37.3039 26.8197 37.2052 26.261 37.1607 25.6938C37.111 24.1699 37.0862 22.6556 37.1187 21.1769C37.1588 19.2608 37.2409 17.3733 37.3478 15.4833C37.4261 14.1069 37.5598 12.7589 37.6897 11.411C37.8005 10.2533 37.9437 9.11457 38.0717 7.96159C38.1347 7.36727 38.2073 6.77295 38.2283 6.16198C38.2493 5.59857 38.0277 4.9995 37.5541 4.46461C36.0262 2.74108 34.4773 1.17207 32.5407 0.458882C30.6423 -0.24004 29.1221 -0.161588 27.9342 0.839249L28.3047 1.2933C28.1614 1.40979 28.0621 1.60948 27.9456 1.56194C27.3517 1.32421 27.2237 1.76638 26.9907 2.05166C26.7997 2.28939 26.5877 2.50572 26.4025 2.75058C26.0208 3.21867 25.66 3.71229 25.3215 4.22925C25.0083 4.74037 24.8918 5.4797 24.4659 5.83392C23.786 6.40209 23.7669 7.46473 23.4708 8.30629C22.9609 9.75881 22.642 11.3635 22.2638 12.9182C22.1202 13.4947 22.0173 14.0857 21.9563 14.6846C21.8226 16.0111 21.7291 17.359 21.624 18.7022C21.6349 18.8003 21.6542 18.8967 21.6813 18.9898C21.8723 20.3116 21.9697 21.6048 22.5178 23.0027C22.8712 23.9013 23.1615 24.8546 23.6847 25.6842C24.8631 27.5528 26.9544 29.2787 28.8662 28.449C29.6429 28.1411 30.2902 27.4635 30.6672 26.5638C31.6527 24.2008 32.5885 21.8093 33.551 19.4153C33.6235 19.2738 33.7101 19.1444 33.8089 19.0302L33.9693 19.1515C33.9693 19.3773 33.9884 19.6055 33.9884 19.8266C33.9884 20.8655 33.9216 21.8782 33.9884 22.9432C34.0617 23.8446 34.1952 24.7368 34.3876 25.6105C34.5856 26.4894 35.0407 27.2442 35.6633 27.7263C36.1695 28.1566 36.6526 28.644 37.1607 29.0695C37.6687 29.495 37.9628 29.3453 38.1767 29.0291C38.3906 28.7129 38.2225 28.3539 37.8329 27.9617M34.9682 5.94803C34.7982 6.91321 34.5652 7.83797 34.3417 8.76749C33.4472 12.605 32.2102 16.3057 30.6538 19.8005C29.8058 21.6619 28.9235 23.509 27.598 24.9211C27.3669 25.1707 27.1779 25.5345 26.6679 25.2135C26.158 24.8926 25.9174 24.3458 25.7245 23.7872C24.6473 20.6967 25.0102 18.2148 25.4055 15.7519C25.5583 14.8129 25.7264 13.8834 25.9288 12.9777C26.0129 12.5997 26.221 12.3096 26.3452 11.9602C26.8093 10.6717 27.2199 9.34517 27.7336 8.09234C28.0992 7.25545 28.5229 6.45999 28.9999 5.71505C29.8593 4.28868 31.2077 3.56123 32.8826 3.33777C33.5377 3.16423 34.1221 3.66108 34.6664 4.35763C35.14 4.96383 35.0484 5.48446 34.9662 5.9409" fill="#2EC697"/>
<path d="M73.1907 27.9593C73.0304 27.8008 72.9054 27.5937 72.8278 27.3579C72.6788 26.8191 72.5801 26.2607 72.5337 25.6938C72.4841 24.1699 72.4592 22.6556 72.4917 21.1769C72.5318 19.2608 72.6158 17.3733 72.7209 15.4833C72.7992 14.1069 72.9329 12.7589 73.0627 11.411C73.1735 10.2533 73.3187 9.11457 73.4447 7.96159C73.5077 7.36727 73.5784 6.77295 73.5994 6.16198C73.6204 5.59857 73.4084 4.9995 72.9252 4.46461C71.3974 2.74108 69.8485 1.17207 67.9119 0.458882C66.0135 -0.24004 64.4952 -0.161588 63.3053 0.839249L63.6758 1.2933C63.5326 1.40979 63.4333 1.60948 63.3168 1.56194C62.7228 1.32421 62.5949 1.76638 62.3619 2.05166C62.1709 2.28939 61.9589 2.50572 61.7736 2.75058C61.3925 3.21928 61.0317 3.71287 60.6926 4.22925C60.3794 4.74037 60.2629 5.4797 59.8389 5.83392C59.1571 6.40209 59.138 7.46473 58.842 8.30629C58.3321 9.75881 58.0131 11.3635 57.635 12.9182C57.4922 13.495 57.3893 14.0859 57.3275 14.6846C57.1938 16.0111 57.1002 17.359 56.9971 18.7022C57.0064 18.8004 57.025 18.897 57.0525 18.9898C57.2434 20.3116 57.3408 21.6048 57.889 23.0027C58.2423 23.9013 58.5345 24.8546 59.0578 25.6842C60.2362 27.5528 62.3275 29.2787 64.2373 28.449C65.0143 28.1418 65.6619 27.464 66.0383 26.5638C67.0238 24.2008 67.9596 21.8093 68.9222 19.4153C68.9952 19.2744 69.0818 19.1451 69.18 19.0302L69.3404 19.1515C69.3404 19.3773 69.3595 19.6055 69.3595 19.8266C69.3595 20.8655 69.2946 21.8782 69.3595 22.9432C69.4328 23.8446 69.5664 24.7368 69.7587 25.6105C69.9567 26.4894 70.4118 27.2442 71.0345 27.7263C71.5425 28.1566 72.0257 28.644 72.5337 29.0695C73.0417 29.495 73.334 29.3453 73.5479 29.0291C73.7618 28.7129 73.5956 28.3539 73.2041 27.9617M70.3393 5.94803C70.1693 6.91321 69.9363 7.83797 69.7129 8.76749C68.8097 12.6056 67.5637 16.3055 65.9982 19.7981C65.1502 21.6595 64.2679 23.5066 62.9424 24.9188C62.7094 25.1684 62.5223 25.5321 62.0104 25.2112C61.4986 24.8902 61.2599 24.3435 61.067 23.7848C59.9898 20.6943 60.3527 18.2124 60.7499 15.7496C60.9008 14.8105 61.0689 13.881 61.2713 12.9753C61.3554 12.5973 61.5635 12.3073 61.6896 11.9578C62.1518 10.6693 62.5643 9.3428 63.0761 8.08997C63.4417 7.25308 63.8654 6.45761 64.3424 5.71268C65.2037 4.28631 66.5501 3.55886 68.227 3.3354C68.8802 3.16186 69.4646 3.6587 70.0089 4.35525C70.4825 4.96145 70.3909 5.48208 70.3087 5.93852" fill="#2EC697"/>
<path d="M54.8676 3.06405V2.75501C54.8525 2.18026 54.6584 1.63534 54.3265 1.23543C53.9945 0.835519 53.5506 0.611938 53.0886 0.611938C52.6266 0.611938 52.1827 0.835519 51.8507 1.23543C51.5188 1.63534 51.3247 2.18026 51.3096 2.75501V3.06405V4.57838H54.8734L54.8676 3.06405Z" fill="#2EC697"/>
<path d="M44.4838 3.06405V2.75501C44.4687 2.18026 44.2746 1.63534 43.9427 1.23543C43.6107 0.835519 43.1668 0.611938 42.7048 0.611938C42.2428 0.611938 41.7989 0.835519 41.467 1.23543C41.135 1.63534 40.9409 2.18026 40.9258 2.75501V3.06405V4.57838H44.4896L44.4838 3.06405Z" fill="#2EC697"/>
</svg>
