<svg width="24" height="24" viewBox="0 0 24 24" fill="none" xmlns="http://www.w3.org/2000/svg">
<path fill-rule="evenodd" clip-rule="evenodd" d="M16.6293 11.1451C17.7112 11.5647 18.4214 11.8429 18.8796 12.0907C18.4239 12.3431 17.7166 12.6284 16.6389 13.0588L8.18756 16.4344C6.83057 16.9764 5.9072 17.3428 5.25657 17.5171C5.56997 16.9209 6.13094 16.101 6.95872 14.8969L7.50316 14.1049L7.52903 14.0673C7.71045 13.8035 7.895 13.5352 8.02727 13.2883C8.05139 13.2433 8.07509 13.1967 8.0979 13.1484H10.4752C11.0275 13.1484 11.4752 12.7007 11.4752 12.1484C11.4752 11.5962 11.0275 11.1484 10.4752 11.1484L8.00942 11.1484C7.87879 10.9108 7.70275 10.6547 7.52957 10.4028L7.50369 10.3651L6.80561 9.34903C5.99159 8.16418 5.44118 7.35913 5.1339 6.77323C5.77475 6.93758 6.68477 7.28816 8.02503 7.80797L16.6293 11.1451ZM6.08101 12.1986C6.03698 12.1277 5.9646 12.0271 5.87747 11.906C5.80496 11.8052 5.72223 11.6902 5.63712 11.5663L4.84792 10.4027C4.07731 9.28115 3.46133 8.34585 3.0836 7.61126C2.89027 7.23527 2.71571 6.81894 2.65808 6.39245C2.59504 5.92601 2.59808 5.4607 2.95607 5.00828C3.31407 4.55587 3.88076 4.37648 4.41965 4.37695C4.95128 4.37742 5.24742 4.45084 5.6493 4.55048L5.66583 4.55457C6.4676 4.7533 7.69099 5.21064 8.95971 5.70276L17.5333 9.05757C18.5469 9.45063 19.4205 9.78941 20.0326 10.1306C20.611 10.453 21.4265 11.0304 21.4318 12.078C21.437 13.1255 20.6274 13.711 20.0522 14.0392C19.4435 14.3865 18.5734 14.734 17.5637 15.1372L8.94984 18.5777C7.66441 19.0912 6.59496 19.5184 5.78513 19.7286C5.37119 19.836 4.93059 19.9416 4.49942 19.9045C4.02805 19.864 3.55312 19.7565 3.21617 19.3349C2.85202 18.8792 2.72006 18.3787 2.78445 17.91C2.83658 17.5306 3.04047 17.1409 3.22256 16.7929C3.24624 16.7476 3.26955 16.7031 3.29211 16.6593C3.57853 16.1041 3.98353 15.4786 4.48864 14.6986C4.65993 14.434 4.84274 14.1517 5.03633 13.8483L5.63011 12.9846C5.8177 12.7117 5.99935 12.4153 6.08101 12.2733V12.1986ZM19.2329 12.325C19.2329 12.325 19.2289 12.3216 19.2236 12.3147C19.2307 12.3215 19.2329 12.325 19.2329 12.325ZM19.2214 11.8633C19.2266 11.8564 19.2305 11.8529 19.2305 11.8529C19.2305 11.8529 19.2283 11.8564 19.2214 11.8633Z" fill="#17AD7F"/>
</svg>
