<svg width="48" height="48" viewBox="0 0 48 48" fill="none" xmlns="http://www.w3.org/2000/svg">
<path d="M31.6773 13.4248L31.6021 13.5001L29.181 15.9462L26.7492 18.3529L24.7564 20.336C24.4438 20.6469 23.9387 20.6465 23.6266 20.335L16.7049 13.4248C14.9994 11.7069 14.9994 8.93563 16.7049 7.21765C18.4228 5.51225 21.0126 5.63575 22.912 7.21765L24.2014 8.33515L25.4701 7.21761C27.4735 5.59554 29.9594 5.51221 31.6773 7.21761C33.3827 8.93563 33.3827 11.7069 31.6773 13.4248Z" fill="#864291"/>
<path d="M23.8018 30.2315C25.7462 30.2315 27.3224 28.6553 27.3224 26.711C27.3224 24.7666 25.7462 23.1904 23.8018 23.1904C21.8575 23.1904 20.2812 24.7666 20.2812 26.711C20.2812 28.6553 21.8575 30.2315 23.8018 30.2315Z" fill="#D786E4"/>
<path d="M27.9806 31.9673L27.3234 41.9657H20.2822L19.625 31.9673C20.7047 30.8876 22.1833 30.2305 23.8028 30.2305C25.4223 30.2305 26.9009 30.8876 27.9571 31.9437L27.9806 31.9673Z" fill="#D786E4"/>
<path d="M34.3643 27.8838C36.3123 27.8838 38.0725 28.6818 39.3398 29.9492C40.6072 31.2165 41.4053 32.9767 41.4053 34.9248V41.1162C41.4052 41.5854 41.0249 41.9658 40.5557 41.9658H29.6709L27.9805 31.9678C29.0835 29.5503 31.5244 27.8839 34.3643 27.8838ZM34.3643 18.4961C36.9566 18.4961 39.0584 20.5971 39.0586 23.1895C39.0586 25.7819 36.9567 27.8838 34.3643 27.8838C31.7719 27.8836 29.6709 25.7818 29.6709 23.1895C29.6711 20.5972 31.7721 18.4963 34.3643 18.4961ZM39.6113 16.1484C40.9074 16.1485 41.9578 17.1991 41.958 18.4951C41.958 19.7913 40.9075 20.8428 39.6113 20.8428C38.3151 20.8428 37.2646 19.7914 37.2646 18.4951C37.2648 17.199 38.3152 16.1484 39.6113 16.1484Z" fill="url(#paint0_linear_535_11122)"/>
<path d="M13.2402 27.8838C15.1883 27.8838 16.9485 28.6817 18.2158 29.9492C18.7572 30.4906 19.1986 31.112 19.54 31.7949C19.5965 31.9079 19.6238 32.0329 19.623 32.1592L19.5596 41.9658H7.04883C6.57963 41.9658 6.19928 41.5854 6.19922 41.1162V34.9248C6.19922 31.0287 9.34427 27.8838 13.2402 27.8838ZM13.2402 18.4961C15.8326 18.4961 17.9344 20.5971 17.9346 23.1895C17.9346 25.7819 15.8327 27.8838 13.2402 27.8838C10.6479 27.8836 8.54688 25.7818 8.54688 23.1895C8.54705 20.5972 10.648 18.4963 13.2402 18.4961Z" fill="url(#paint1_linear_535_11122)"/>
<path d="M29.6693 36.0986V41.9662H27.3223V34.925C27.3223 33.8689 27.5569 32.8596 27.9795 31.9678C29.0121 33.0239 29.6693 34.4791 29.6693 36.0986Z" fill="#864291"/>
<path d="M20.2806 34.925V41.9662H17.9336V36.0986C17.9336 34.4791 18.5908 33.0239 19.6234 31.9678C20.046 32.8596 20.2806 33.8689 20.2806 34.925Z" fill="#864291"/>
<defs>
<linearGradient id="paint0_linear_535_11122" x1="35.1138" y1="12.6642" x2="34.9088" y2="45.6748" gradientUnits="userSpaceOnUse">
<stop stop-color="#F9D4FF"/>
<stop offset="0.57" stop-color="#D786E4"/>
<stop offset="1" stop-color="#9D59A8"/>
</linearGradient>
<linearGradient id="paint1_linear_535_11122" x1="12.8531" y1="13.842" x2="12.8531" y2="45.3376" gradientUnits="userSpaceOnUse">
<stop stop-color="#F9D4FF"/>
<stop offset="0.57" stop-color="#D786E4"/>
<stop offset="1" stop-color="#9D59A8"/>
</linearGradient>
</defs>
</svg>
