<svg width="40" height="40" viewBox="0 0 40 40" fill="none" xmlns="http://www.w3.org/2000/svg">
<rect width="40" height="40" rx="20" fill="#ECFFF9"/>
<rect x="0.5" y="0.5" width="39" height="39" rx="19.5" stroke="#F5F6F7" stroke-opacity="0.2"/>
<g clip-path="url(#clip0_1213_546)">
<path d="M30 16.6662C30 17.5529 29.7867 18.5037 29.365 19.4929C29.23 19.8095 28.9225 20.0004 28.5983 20.0004C28.4892 20.0004 28.3783 19.9787 28.2717 19.9329C27.8475 19.7529 27.6508 19.2629 27.8317 18.8395C28.1642 18.0579 28.3333 17.327 28.3333 16.6662C28.3333 14.4079 26.6158 12.4995 24.5833 12.4995C22.7208 12.4995 21.66 13.2537 20.945 13.9112L17.7583 16.8687C17.4642 17.1637 17.3942 17.6595 17.6225 17.977C17.7717 18.1845 17.9908 18.3095 18.2383 18.3295C18.4842 18.352 18.7225 18.262 18.895 18.0879L22.3725 14.7587C22.7025 14.4412 23.2317 14.452 23.5508 14.7845C23.8692 15.117 23.8575 15.6445 23.525 15.9629L22.4933 16.9504L26.4492 20.422C27.3758 21.2354 27.6042 22.6012 26.98 23.5987C26.5958 24.212 25.9683 24.6245 25.2592 24.7287C25.2108 24.7354 25.1633 24.7412 25.115 24.7454C25.1117 25.1745 24.9975 25.5995 24.7633 25.9745C24.3792 26.5879 23.7517 27.0004 23.0425 27.1045C22.8883 27.1262 22.735 27.1354 22.5817 27.1279C22.5367 27.4462 22.4283 27.7562 22.2525 28.037C21.8683 28.6504 21.2492 29.1929 20.1758 29.1929C19.5867 29.1929 19.015 28.9804 18.5667 28.5862L15.98 26.2662C13.2508 23.7995 10 20.1337 10 16.6662C10 13.4495 12.43 10.8329 15.4167 10.8329C16.105 10.8329 16.7775 10.9729 17.4142 11.2495C17.8367 11.4329 18.0308 11.9237 17.8475 12.3454C17.6642 12.767 17.1733 12.9604 16.7517 12.7787C16.325 12.5937 15.8758 12.5004 15.4158 12.5004C13.3833 12.5004 11.6658 14.4087 11.6658 16.667C11.6658 18.8954 13.5933 21.8645 17.095 25.0287L19.6733 27.3404C19.8375 27.4845 20.065 27.5512 20.29 27.5187C20.5183 27.4854 20.7142 27.3562 20.84 27.1537C21.0317 26.8462 20.9367 26.3895 20.6225 26.1145L17.95 23.5737C17.6175 23.257 17.6033 22.7304 17.9192 22.3962C18.2358 22.0629 18.7625 22.0487 19.0967 22.3637L22.1983 25.292C22.3475 25.422 22.5783 25.4904 22.8 25.4554C23.0283 25.422 23.2242 25.292 23.35 25.0904C23.5417 24.7829 23.4467 24.3262 23.1325 24.0504L20.1658 21.3645C19.8258 21.057 19.7983 20.5312 20.105 20.1904C20.4108 19.8495 20.9367 19.8195 21.2792 20.1245L24.3975 22.8995C24.5642 23.0462 24.7925 23.1145 25.0167 23.0795C25.245 23.0462 25.4408 22.9162 25.5667 22.7145C25.7583 22.407 25.6633 21.9504 25.3492 21.6745L21.2842 18.107L20.0592 19.2795C19.5533 19.7862 18.8392 20.0495 18.1025 19.9912C17.3708 19.932 16.7017 19.5529 16.2683 18.9504C15.5642 17.972 15.7067 16.5612 16.6 15.6679L19.8125 12.6862C20.6808 11.8887 22.1158 10.832 24.5817 10.832C27.5683 10.832 29.9983 13.4487 29.9983 16.6654L30 16.6662Z" fill="#17AD7F"/>
</g>
<defs>
<clipPath id="clip0_1213_546">
<rect width="20" height="20" fill="white" transform="translate(10 10)"/>
</clipPath>
</defs>
</svg>
