<svg width="96" height="100" viewBox="0 0 96 100" fill="none" xmlns="http://www.w3.org/2000/svg">
<g filter="url(#filter0_dd_590_1509)">
<rect x="20" y="4" width="56" height="56" rx="12" fill="url(#paint0_radial_590_1509)"/>
<rect x="20" y="4" width="56" height="56" rx="12" fill="#17AD7F"/>
<rect x="20" y="4" width="56" height="56" rx="12" fill="url(#paint1_linear_590_1509)" fill-opacity="0.2"/>
<rect x="20.8" y="4.8" width="54.4" height="54.4" rx="11.2" stroke="url(#paint2_linear_590_1509)" stroke-width="1.6"/>
<path d="M45 26H42C41.2044 26 40.4413 26.3161 39.8787 26.8787C39.3161 27.4413 39 28.2044 39 29V32C39 32.3978 39.158 32.7794 39.4393 33.0607C39.7206 33.342 40.1022 33.5 40.5 33.5H44.9325C44.7545 34.5474 44.2121 35.4982 43.401 36.1844C42.5899 36.8706 41.5624 37.248 40.5 37.25C40.3011 37.25 40.1103 37.329 39.9697 37.4697C39.829 37.6103 39.75 37.8011 39.75 38C39.75 38.1989 39.829 38.3897 39.9697 38.5303C40.1103 38.671 40.3011 38.75 40.5 38.75C42.0908 38.7482 43.6158 38.1155 44.7407 36.9907C45.8655 35.8658 46.4982 34.3408 46.5 32.75V27.5C46.5 27.1022 46.342 26.7206 46.0607 26.4393C45.7794 26.158 45.3978 26 45 26Z" fill="white"/>
<path d="M55.5 26H52.5C51.7044 26 50.9413 26.3161 50.3787 26.8787C49.8161 27.4413 49.5 28.2044 49.5 29V32C49.5 32.3978 49.658 32.7794 49.9393 33.0607C50.2206 33.342 50.6022 33.5 51 33.5H55.4325C55.2545 34.5474 54.7121 35.4982 53.901 36.1844C53.0899 36.8706 52.0624 37.248 51 37.25C50.8011 37.25 50.6103 37.329 50.4697 37.4697C50.329 37.6103 50.25 37.8011 50.25 38C50.25 38.1989 50.329 38.3897 50.4697 38.5303C50.6103 38.671 50.8011 38.75 51 38.75C52.5908 38.7482 54.1158 38.1155 55.2407 36.9907C56.3655 35.8658 56.9982 34.3408 57 32.75V27.5C57 27.1022 56.842 26.7206 56.5607 26.4393C56.2794 26.158 55.8978 26 55.5 26Z" fill="white"/>
</g>
<defs>
<filter id="filter0_dd_590_1509" x="0" y="0" width="96" height="100" filterUnits="userSpaceOnUse" color-interpolation-filters="sRGB">
<feFlood flood-opacity="0" result="BackgroundImageFix"/>
<feColorMatrix in="SourceAlpha" type="matrix" values="0 0 0 0 0 0 0 0 0 0 0 0 0 0 0 0 0 0 127 0" result="hardAlpha"/>
<feMorphology radius="4" operator="erode" in="SourceAlpha" result="effect1_dropShadow_590_1509"/>
<feOffset dy="8"/>
<feGaussianBlur stdDeviation="8"/>
<feColorMatrix type="matrix" values="0 0 0 0 0.0340958 0 0 0 0 0.030625 0 0 0 0 0.204167 0 0 0 0.16 0"/>
<feBlend mode="normal" in2="BackgroundImageFix" result="effect1_dropShadow_590_1509"/>
<feColorMatrix in="SourceAlpha" type="matrix" values="0 0 0 0 0 0 0 0 0 0 0 0 0 0 0 0 0 0 127 0" result="hardAlpha"/>
<feMorphology radius="4" operator="erode" in="SourceAlpha" result="effect2_dropShadow_590_1509"/>
<feOffset dy="20"/>
<feGaussianBlur stdDeviation="12"/>
<feColorMatrix type="matrix" values="0 0 0 0 0.165021 0 0 0 0 0.0927083 0 0 0 0 0.370833 0 0 0 0.08 0"/>
<feBlend mode="normal" in2="effect1_dropShadow_590_1509" result="effect2_dropShadow_590_1509"/>
<feBlend mode="normal" in="SourceGraphic" in2="effect2_dropShadow_590_1509" result="shape"/>
</filter>
<radialGradient id="paint0_radial_590_1509" cx="0" cy="0" r="1" gradientUnits="userSpaceOnUse" gradientTransform="translate(48.2435 60) scale(27.7565 50.5585)">
<stop stop-color="#17AD7F"/>
<stop offset="1" stop-color="#2EC697"/>
</radialGradient>
<linearGradient id="paint1_linear_590_1509" x1="20" y1="4" x2="80.4335" y2="11.4143" gradientUnits="userSpaceOnUse">
<stop stop-opacity="0"/>
<stop offset="1"/>
</linearGradient>
<linearGradient id="paint2_linear_590_1509" x1="48.2435" y1="32" x2="76" y2="32" gradientUnits="userSpaceOnUse">
<stop stop-color="#17AD7F"/>
<stop offset="1" stop-color="#2EC697"/>
</linearGradient>
</defs>
</svg>
