<svg width="20" height="20" viewBox="0 0 20 20" fill="none" xmlns="http://www.w3.org/2000/svg">
<path fill-rule="evenodd" clip-rule="evenodd" d="M12.0065 15.8688C11.8425 15.7047 11.7503 15.4822 11.7503 15.2502C11.7503 15.0182 11.8425 14.7956 12.0065 14.6315L14.0129 12.6251L9.12508 12.6251C7.50061 12.6251 5.94267 11.9798 4.794 10.8311C3.64532 9.68247 3 8.12453 3 6.50006L3 4.75004C3 4.51797 3.09219 4.2954 3.25629 4.13131C3.42038 3.96721 3.64295 3.87502 3.87501 3.87502C4.10708 3.87502 4.32964 3.96721 4.49374 4.13131C4.65784 4.2954 4.75002 4.51797 4.75002 4.75004L4.75002 6.50006C4.75002 7.6604 5.21097 8.77321 6.03145 9.59369C6.85193 10.4142 7.96475 10.8751 9.12508 10.8751L14.0129 10.8751L12.0065 8.86871C11.9229 8.788 11.8563 8.69144 11.8104 8.58469C11.7645 8.47794 11.7404 8.36312 11.7394 8.24693C11.7384 8.13075 11.7605 8.01553 11.8045 7.90799C11.8485 7.80046 11.9135 7.70276 11.9957 7.6206C12.0778 7.53845 12.1755 7.47347 12.283 7.42948C12.3906 7.38548 12.5058 7.36334 12.622 7.36435C12.7382 7.36536 12.853 7.3895 12.9597 7.43536C13.0665 7.48122 13.163 7.54788 13.2438 7.63145L16.7438 11.1315C16.9078 11.2956 17 11.5181 17 11.7501C17 11.9822 16.9078 12.2047 16.7438 12.3688L13.2438 15.8688C13.0797 16.0328 12.8572 16.125 12.6251 16.125C12.3931 16.125 12.1706 16.0328 12.0065 15.8688Z" fill="#2561ED"/>
</svg>
