<svg width="48" height="48" viewBox="0 0 48 48" fill="none" xmlns="http://www.w3.org/2000/svg">
<path d="M22.8965 5.21194L9.76426 10.4712C8.75409 10.8721 8.09668 11.8502 8.09668 12.9405C8.09668 12.9405 8.00389 14.6548 8.00391 16.2998C8.00392 17.9448 8.04185 19.9765 8.04185 19.9765C8.83179 29.4558 14.5143 37.7952 22.8163 42.2675C23.4897 42.5722 24.2754 42.5722 24.9489 42.2675C33.2923 38.2098 38.9199 29.2056 39.8854 19.6086C39.8854 19.6086 39.9694 18.1386 39.9904 16.1855C40.0114 14.2324 39.9751 12.8963 39.9751 12.8963C39.9751 11.806 39.0111 10.8881 38.0009 10.4712L24.8687 5.21194C24.2434 4.95539 23.5378 4.95539 22.8965 5.21194Z" fill="url(#paint0_linear_535_11127)"/>
<path d="M29.7053 17.0783C29.7056 16.4282 29.1787 15.9009 28.5286 15.9007L19.4823 15.897C18.8322 15.8967 18.3049 16.4236 18.3046 17.0736C18.3044 17.7237 18.8312 18.251 19.4813 18.2512L22.0695 18.2523C23.0943 18.2407 24.0367 18.8112 24.5002 19.7247L19.4807 19.7227C18.8306 19.7224 18.3033 20.2493 18.3031 20.8993C18.3028 21.5494 18.8297 22.0767 19.4797 22.0769L24.501 22.079C24.3767 22.3692 24.2001 22.6335 23.9799 22.8599C23.4785 23.381 22.7903 23.6819 22.0673 23.6966L19.4791 23.6955C19.0014 23.6798 18.5645 23.963 18.3838 24.4055C18.2032 24.848 18.3173 25.3561 18.669 25.6793L25.1367 31.7884C25.6119 32.2283 26.3528 32.2027 26.7967 31.731C27.2406 31.2599 27.2214 30.519 26.7542 30.071L22.4238 25.9751C23.6413 25.8877 24.7858 25.3605 25.6438 24.493C26.3033 23.8259 26.7681 22.9915 26.9892 22.08L28.5261 22.0807C29.1762 22.0809 29.7035 21.5541 29.7037 20.904C29.704 20.2539 29.1771 19.7266 28.5271 19.7264L26.9878 19.7257C26.8702 19.1981 26.6503 18.6979 26.3412 18.2541L28.5277 18.255C29.1777 18.2552 29.705 17.7284 29.7053 17.0783Z" fill="#9CD3FF"/>
<defs>
<linearGradient id="paint0_linear_535_11127" x1="24.0004" y1="53.4395" x2="24.2334" y2="7.63758" gradientUnits="userSpaceOnUse">
<stop stop-color="#0B66AF"/>
<stop offset="0.484082" stop-color="#2F8AD3"/>
<stop offset="1" stop-color="#6BBDFF"/>
</linearGradient>
</defs>
</svg>
