<svg width="48" height="48" viewBox="0 0 48 48" fill="none" xmlns="http://www.w3.org/2000/svg">
<circle cx="24.0873" cy="22.0541" r="18.0131" fill="url(#paint0_linear_535_11132)"/>
<path d="M30.3173 14.1918C30.3175 13.5061 29.7619 12.95 29.0762 12.9497L19.5351 12.9458C18.8494 12.9455 18.2933 13.5012 18.293 14.1868C18.2927 14.8725 18.8484 15.4286 19.534 15.4289L22.2638 15.43C23.3447 15.4177 24.3386 16.0195 24.8275 16.9829L19.5334 16.9808C18.8478 16.9805 18.2916 17.5362 18.2914 18.2218C18.2911 18.9074 18.8468 19.4635 19.5324 19.4638L24.8283 19.466C24.6972 19.7721 24.511 20.0509 24.2787 20.2896C23.7499 20.8392 23.0241 21.1566 22.2615 21.172L19.5317 21.1709C19.0279 21.1544 18.5671 21.453 18.3765 21.9197C18.186 22.3864 18.3064 22.9224 18.6773 23.2632L25.4988 29.7064C25.9999 30.1704 26.7814 30.1434 27.2496 29.6459C27.7178 29.149 27.6975 28.3676 27.2048 27.8952L22.6375 23.5752C23.9215 23.483 25.1287 22.927 26.0336 22.012C26.7292 21.3085 27.2194 20.4284 27.4526 19.4671L29.0736 19.4677C29.7592 19.468 30.3153 18.9124 30.3156 18.2267C30.3159 17.5411 29.7602 16.985 29.0746 16.9847L27.4512 16.984C27.3271 16.4275 27.0951 15.9 26.7692 15.4318L29.0752 15.4328C29.7609 15.4331 30.317 14.8774 30.3173 14.1918Z" fill="#AEE9C8"/>
<path d="M17.6103 37.5692L23.3097 42.0441C23.5798 42.2562 23.9608 42.2529 24.2272 42.0362L36.5315 32.0262" stroke="#AEE9C8" stroke-width="4.60182" stroke-linecap="round"/>
<defs>
<linearGradient id="paint0_linear_535_11132" x1="23.4965" y1="39.9815" x2="25.0452" y2="-1.07279" gradientUnits="userSpaceOnUse">
<stop offset="0.01" stop-color="#308956"/>
<stop offset="0.611981" stop-color="#63C48D"/>
<stop offset="0.968549" stop-color="#AEE9C8"/>
</linearGradient>
</defs>
</svg>
