<svg width="25" height="24" viewBox="0 0 25 24" fill="none" xmlns="http://www.w3.org/2000/svg">
<g clip-path="url(#clip0_535_10879)">
<path d="M8.05016 21.7502C17.1045 21.7502 22.0583 14.2469 22.0583 7.74211C22.0583 7.53117 22.0536 7.31554 22.0442 7.1046C23.0079 6.40771 23.8395 5.5445 24.5 4.55554C23.6025 4.95484 22.6496 5.21563 21.6739 5.32898C22.7013 4.71315 23.4705 3.74572 23.8391 2.60601C22.8726 3.1788 21.8156 3.58286 20.7134 3.80085C19.9708 3.01181 18.989 2.48936 17.9197 2.3143C16.8504 2.13923 15.7532 2.32129 14.7977 2.83234C13.8423 3.34339 13.0818 4.15495 12.6338 5.14156C12.1859 6.12816 12.0754 7.23486 12.3195 8.29054C10.3625 8.19233 8.44794 7.68395 6.69998 6.79834C4.95203 5.91274 3.40969 4.66968 2.17297 3.14976C1.5444 4.23349 1.35206 5.51589 1.63503 6.73634C1.918 7.95678 2.65506 9.02369 3.69641 9.72023C2.91463 9.69541 2.14998 9.48492 1.46563 9.10617V9.1671C1.46492 10.3044 1.8581 11.4068 2.57831 12.287C3.29852 13.1672 4.30132 13.7708 5.41625 13.9952C4.69206 14.1934 3.93198 14.2222 3.19484 14.0796C3.50945 15.0577 4.12157 15.9131 4.94577 16.5266C5.76997 17.14 6.76512 17.4808 7.79234 17.5015C6.04842 18.8714 3.89417 19.6144 1.67656 19.6109C1.28329 19.6103 0.890399 19.5861 0.5 19.5387C2.75286 20.984 5.37353 21.7516 8.05016 21.7502Z" fill="white"/>
</g>
<defs>
<clipPath id="clip0_535_10879">
<rect width="24" height="24" fill="white" transform="translate(0.5)"/>
</clipPath>
</defs>
</svg>
